<?xml version="1.0" encoding="iso-8859-1"?>
<!-- Generator: Adobe Illustrator 19.0.0, SVG Export Plug-In . SVG Version: 6.00 Build 0)  -->
<svg version="1.1" id="Layer_1" xmlns="http://www.w3.org/2000/svg" xmlns:xlink="http://www.w3.org/1999/xlink" x="0px" y="0px"
	 viewBox="0 0 512 512" style="enable-background:new 0 0 512 512;" xml:space="preserve">
<g>
	<g>
		<path d="M478.605,155.826v-55.652h-33.391V66.783h-33.391V33.391H356.17V0H155.822v33.391H100.17v33.391H66.779v33.391H33.387
			v55.652l-33.384,0.003v200.348h33.384v55.649h33.391v11.13v22.261h33.391v11.13v22.261h55.652v11.13V512H356.17v-22.261v-11.13
			h55.652v-22.261v-11.13h33.391v-22.261v-11.13h33.391v-55.649h11.137v-0.003h22.254V155.826H478.605z M122.431,133.565h66.783
			V267.13h-66.783V133.565z M378.431,378.435H345.04v33.391H166.953v-33.391h-33.391v-66.783h33.391v66.783H345.04v-66.783h33.391
			V378.435z M389.561,267.13h-66.783V133.565h66.783V267.13z"/>
	</g>
</g>
<g>
</g>
<g>
</g>
<g>
</g>
<g>
</g>
<g>
</g>
<g>
</g>
<g>
</g>
<g>
</g>
<g>
</g>
<g>
</g>
<g>
</g>
<g>
</g>
<g>
</g>
<g>
</g>
<g>
</g>
</svg>
