<svg id="app-store-cat" xmlns="http://www.w3.org/2000/svg" width="107.64" height="36" viewBox="0 0 107.64 36">
  <g id="Grupo_527">
    <g id="Grupo_522">
      <g id="Grupo_521">
        <path id="Trazado_281" d="M99,0H6.768a14.026,14.026,0,0,0-1.8.144A8.118,8.118,0,0,0,3.24.72,6.847,6.847,0,0,0,1.8,1.8,6.847,6.847,0,0,0,.72,3.24,8.118,8.118,0,0,0,.144,4.968,15.158,15.158,0,0,0,0,6.768V29.232a15.158,15.158,0,0,0,.144,1.8A5.431,5.431,0,0,0,.72,32.76,6.847,6.847,0,0,0,1.8,34.2a6.847,6.847,0,0,0,1.44,1.08,6.1,6.1,0,0,0,1.728.576,15.157,15.157,0,0,0,1.8.144h94.1a15.157,15.157,0,0,0,1.8-.144,5.431,5.431,0,0,0,1.728-.576,6.364,6.364,0,0,0,2.52-2.52,6.968,6.968,0,0,0,.576-1.728,15.156,15.156,0,0,0,.144-1.8V6.768a15.158,15.158,0,0,0-.144-1.8,5.431,5.431,0,0,0-.576-1.728A6.073,6.073,0,0,0,104.4.72a8.118,8.118,0,0,0-1.728-.576A17.728,17.728,0,0,0,100.8,0H99Z" fill="#535353"/>
        <path id="Trazado_282" d="M7.868,35.444H7.076A11.818,11.818,0,0,1,5.42,35.3a6.221,6.221,0,0,1-1.512-.5,5.034,5.034,0,0,1-1.224-.936,7.86,7.86,0,0,1-.936-1.224,5.342,5.342,0,0,1-.5-1.512A14.058,14.058,0,0,1,1.1,29.468V7.076A11.817,11.817,0,0,1,1.244,5.42a6.221,6.221,0,0,1,.5-1.512,5.034,5.034,0,0,1,.936-1.224,5.034,5.034,0,0,1,1.224-.936,5.342,5.342,0,0,1,1.512-.5A14.058,14.058,0,0,1,7.076,1.1h93.96a11.817,11.817,0,0,1,1.656.144,6.221,6.221,0,0,1,1.512.5,4.823,4.823,0,0,1,2.16,2.16,4.674,4.674,0,0,1,.5,1.512,13.979,13.979,0,0,1,.144,1.728v22.32a12.854,12.854,0,0,1-.144,1.656,4.166,4.166,0,0,1-.5,1.512,5.034,5.034,0,0,1-.936,1.224,7.86,7.86,0,0,1-1.224.936,6.221,6.221,0,0,1-1.512.5,14.059,14.059,0,0,1-1.656.144H7.868Z" transform="translate(-0.308 -0.308)"/>
      </g>
    </g>
    <g id="Grupo_526" transform="translate(8.937 7.839)">
      <g id="Grupo_524" transform="translate(0)">
        <g id="Grupo_523">
          <path id="Trazado_283" d="M13.31,12.283A4.41,4.41,0,0,1,15.4,8.539a4.67,4.67,0,0,0-3.6-1.944c-1.512-.144-2.952.936-3.744.936s-1.944-.864-3.24-.864A4.752,4.752,0,0,0,.782,9.043C-.946,12.067.35,16.459,2.006,18.907c.864,1.224,1.8,2.52,3.1,2.448,1.224-.072,1.728-.792,3.24-.792s1.944.792,3.24.792c1.368,0,2.16-1.224,2.952-2.376A10.161,10.161,0,0,0,15.9,16.171,4.156,4.156,0,0,1,13.31,12.283Z" transform="translate(0.037 -1.843)" fill="#fff"/>
          <path id="Trazado_284" d="M13.976,3.168A4.533,4.533,0,0,0,14.984,0,4.533,4.533,0,0,0,12.1,1.512,4.285,4.285,0,0,0,11.1,4.536,3.8,3.8,0,0,0,13.976,3.168Z" transform="translate(-3.078)" fill="#fff"/>
        </g>
      </g>
      <g id="Grupo_525" transform="translate(22.01 8.154)">
        <path id="Trazado_285" d="M7.056,8.436H2.808L1.8,11.46H0L4.032.3H5.9L9.936,11.46H8.064ZM3.24,7H6.624L4.968,2.1H4.9Z" transform="translate(0 -0.012)" fill="#fff"/>
        <path id="Trazado_286" d="M22.9,8.5c0,2.52-1.368,4.176-3.384,4.176a2.814,2.814,0,0,1-2.592-1.44h-.072v4.032H15.2V4.471h1.584V5.839h0A2.875,2.875,0,0,1,19.376,4.4C21.536,4.327,22.9,5.983,22.9,8.5Zm-1.728,0c0-1.656-.864-2.736-2.16-2.736s-2.16,1.08-2.16,2.736.864,2.736,2.16,2.736,2.16-1.08,2.16-2.736Z" transform="translate(-4.256 -1.159)" fill="#fff"/>
        <path id="Trazado_287" d="M35.332,8.5c0,2.52-1.368,4.176-3.384,4.176a2.814,2.814,0,0,1-2.592-1.44h0v4.032H27.7V4.471h1.584V5.839h0A2.875,2.875,0,0,1,31.876,4.4C33.964,4.327,35.332,5.983,35.332,8.5ZM33.6,8.5c0-1.656-.864-2.736-2.16-2.736s-2.16,1.08-2.16,2.736.864,2.736,2.16,2.736C32.812,11.239,33.6,10.159,33.6,8.5Z" transform="translate(-7.756 -1.159)" fill="#fff"/>
        <path id="Trazado_288" d="M45.856,8.18C46,9.26,47.08,9.98,48.52,9.98s2.448-.72,2.448-1.728c0-.864-.576-1.368-2.088-1.728l-1.44-.36c-2.016-.5-3.024-1.44-3.024-3.024,0-1.944,1.656-3.24,4.032-3.24s3.96,1.3,4.032,3.24H50.824c-.072-1.008-.936-1.728-2.3-1.728s-2.3.72-2.3,1.656c0,.792.576,1.224,2.016,1.584l1.3.36c2.3.576,3.24,1.44,3.24,3.1,0,2.088-1.656,3.384-4.32,3.384-2.448,0-4.176-1.3-4.248-3.312Z" transform="translate(-12.376 0.1)" fill="#fff"/>
        <path id="Trazado_289" d="M60.008,1.8V3.744h1.584v1.3H60.008V9.5c0,.72.288,1.008,1.008,1.008a1.585,1.585,0,0,0,.576-.072v1.3a4.105,4.105,0,0,1-.936.072c-1.656,0-2.3-.648-2.3-2.232V5.04H57.2v-1.3h1.152V1.8Z" transform="translate(-16.016 -0.432)" fill="#fff"/>
        <path id="Trazado_290" d="M64.5,8.476c0-2.592,1.512-4.176,3.888-4.176s3.888,1.584,3.888,4.176-1.512,4.176-3.888,4.176S64.5,11.068,64.5,8.476Zm5.976,0c0-1.728-.792-2.808-2.16-2.808s-2.16,1.08-2.16,2.808c0,1.8.792,2.808,2.16,2.808S70.476,10.276,70.476,8.476Z" transform="translate(-18.06 -1.132)" fill="#fff"/>
        <path id="Trazado_291" d="M77.1,4.47h1.584V5.838h.072A1.874,1.874,0,0,1,80.7,4.4a1.585,1.585,0,0,1,.576.072V6.054a2.449,2.449,0,0,0-.72-.072,1.633,1.633,0,0,0-1.728,1.584v5.112H77.172Z" transform="translate(-21.588 -1.158)" fill="#fff"/>
        <path id="Trazado_292" d="M90.744,10.16c-.216,1.512-1.656,2.52-3.528,2.52-2.376,0-3.816-1.584-3.816-4.1S84.912,4.4,87.144,4.4s3.672,1.512,3.672,4.032v.576h-5.76V9.08A2.208,2.208,0,0,0,87,11.384h.288a1.8,1.8,0,0,0,1.872-1.152ZM85.056,7.784h4.1A2,2,0,0,0,87.288,5.7h-.144a2.09,2.09,0,0,0-2.088,2.088Z" transform="translate(-23.352 -1.16)" fill="#fff"/>
      </g>
    </g>
  </g>
  <g id="Grupo_501" data-name="Grupo 501" transform="translate(32.256 6.552)">
    <path id="Trazado_14" data-name="Trazado 14" d="M44.8,14.788V9.1h1.944a3.826,3.826,0,0,1,1.008.072,1.962,1.962,0,0,1,.864.432,2.74,2.74,0,0,1,.648.936,3.9,3.9,0,0,1,.216,1.368,5.6,5.6,0,0,1-.144,1.152,2.025,2.025,0,0,1-.36.792,3.326,3.326,0,0,1-.5.5,2.558,2.558,0,0,1-.648.288,3.8,3.8,0,0,1-.936.072H44.8Zm.792-.72h1.224A2.967,2.967,0,0,0,47.68,14a1.16,1.16,0,0,0,.5-.288,3.148,3.148,0,0,0,.432-.72,4.358,4.358,0,0,0,.144-1.08,2.42,2.42,0,0,0-.288-1.368,2.042,2.042,0,0,0-.72-.648,2.821,2.821,0,0,0-.936-.144H45.592Z" transform="translate(-44.8 -9.1)" fill="#fff"/>
    <path id="Trazado_15" data-name="Trazado 15" d="M52.6,9.892V9.1h.72v.792Zm0,4.9v-4.1h.72v4.1Z" transform="translate(-46.984 -9.1)" fill="#fff"/>
    <path id="Trazado_16" data-name="Trazado 16" d="M54.5,14.152l.72-.144a1.357,1.357,0,0,0,.288.648,1.308,1.308,0,0,0,1.44,0,.622.622,0,0,0,.216-.432.4.4,0,0,0-.216-.36,2.122,2.122,0,0,0-.72-.216,4.608,4.608,0,0,1-1.08-.36.737.737,0,0,1-.432-.36,1.356,1.356,0,0,1-.144-.576,1.041,1.041,0,0,1,.144-.5.868.868,0,0,1,.36-.36l.432-.216a1.585,1.585,0,0,1,.576-.072,3.614,3.614,0,0,1,.864.144.918.918,0,0,1,.5.36.88.88,0,0,1,.216.648l-.648.072a.729.729,0,0,0-.288-.5c-.144-.144-.36-.144-.648-.144a1.807,1.807,0,0,0-.72.144.4.4,0,0,0-.216.36.264.264,0,0,0,.072.216.994.994,0,0,0,.288.216c.072,0,.288.072.648.144.5.144.864.216,1.008.288a.737.737,0,0,1,.432.36,1.357,1.357,0,0,1,.144.576,1.161,1.161,0,0,1-.216.648,1.941,1.941,0,0,1-.576.5,1.826,1.826,0,0,1-.864.144,2.059,2.059,0,0,1-1.224-.36A2.54,2.54,0,0,1,54.5,14.152Z" transform="translate(-47.516 -9.688)" fill="#fff"/>
    <path id="Trazado_17" data-name="Trazado 17" d="M60.3,16.932V11.244h.648v.5a1.682,1.682,0,0,1,.5-.5,2.13,2.13,0,0,1,.72-.144,1.447,1.447,0,0,1,.936.288,1.281,1.281,0,0,1,.576.792,2.889,2.889,0,0,1,.216,1.08,2.985,2.985,0,0,1-.216,1.152,1.76,1.76,0,0,1-.648.792,2.042,2.042,0,0,1-.936.288,2.1,2.1,0,0,1-.648-.144.737.737,0,0,1-.432-.36V17H60.3Zm.648-3.672a1.7,1.7,0,0,0,.288,1.152.917.917,0,0,0,.792.36,1.156,1.156,0,0,0,.792-.36,1.907,1.907,0,0,0,.36-1.224,1.7,1.7,0,0,0-.288-1.152.917.917,0,0,0-.792-.36,1,1,0,0,0-.792.432A1.487,1.487,0,0,0,60.948,13.26Z" transform="translate(-49.14 -9.66)" fill="#fff"/>
    <path id="Trazado_18" data-name="Trazado 18" d="M65.9,13.288a1.97,1.97,0,0,1,.648-1.656,2.01,2.01,0,0,1,1.3-.432,1.844,1.844,0,0,1,1.368.576,2.028,2.028,0,0,1,.5,1.512,2.869,2.869,0,0,1-.216,1.224,1.726,1.726,0,0,1-.72.72,2.3,2.3,0,0,1-1.008.216,1.844,1.844,0,0,1-1.368-.576A2.443,2.443,0,0,1,65.9,13.288Zm.72,0a1.691,1.691,0,0,0,.36,1.152.969.969,0,0,0,.864.36,1.192,1.192,0,0,0,.864-.36,1.906,1.906,0,0,0,.36-1.224,1.832,1.832,0,0,0-.36-1.152.969.969,0,0,0-.864-.36,1.192,1.192,0,0,0-.864.36A1.906,1.906,0,0,0,66.62,13.288Z" transform="translate(-50.708 -9.688)" fill="#fff"/>
    <path id="Trazado_19" data-name="Trazado 19" d="M72.3,15.376v-4.1h.648v.576a1.454,1.454,0,0,1,1.3-.648,1.72,1.72,0,0,1,.648.144.737.737,0,0,1,.432.36,3.51,3.51,0,0,1,.216.5c0,.144.072.36.072.648v2.52h-.72v-2.52a1.6,1.6,0,0,0-.072-.648.719.719,0,0,0-.288-.36c-.072-.072-.288-.072-.432-.072a1.083,1.083,0,0,0-.792.288,1.5,1.5,0,0,0-.288,1.08v2.232Z" transform="translate(-52.5 -9.688)" fill="#fff"/>
    <path id="Trazado_20" data-name="Trazado 20" d="M78.3,9.892V9.1h.72v.792Zm0,4.9v-4.1h.72v4.1Z" transform="translate(-54.18 -9.1)" fill="#fff"/>
    <path id="Trazado_21" data-name="Trazado 21" d="M81.248,14.788H80.6V9.1h.72v2.016a1.4,1.4,0,0,1,1.152-.576,2.13,2.13,0,0,1,.72.144,1.12,1.12,0,0,1,.576.432,2.918,2.918,0,0,1,.36.648,3.094,3.094,0,0,1,.144.864,2.4,2.4,0,0,1-.5,1.656,1.775,1.775,0,0,1-1.224.576,1.4,1.4,0,0,1-1.152-.576v.5Zm0-2.088a2.024,2.024,0,0,0,.216,1.08.94.94,0,0,0,.864.5,1,1,0,0,0,.792-.432,1.832,1.832,0,0,0,.36-1.152,1.7,1.7,0,0,0-.288-1.152.917.917,0,0,0-.792-.36,1,1,0,0,0-.792.432A1.375,1.375,0,0,0,81.248,12.7Z" transform="translate(-54.824 -9.1)" fill="#fff"/>
    <path id="Trazado_22" data-name="Trazado 22" d="M86.6,14.788V9.1h.72v5.688Z" transform="translate(-56.504 -9.1)" fill="#fff"/>
    <path id="Trazado_23" data-name="Trazado 23" d="M91.724,13.98l.72.072A1.893,1.893,0,0,1,91.8,15.06a2.06,2.06,0,0,1-2.592-.216,2.1,2.1,0,0,1-.5-1.584,2.1,2.1,0,0,1,.5-1.584,1.913,1.913,0,0,1,2.736,0,2.1,2.1,0,0,1,.5,1.584v.216h-3.1a1.424,1.424,0,0,0,.36,1.008,1.192,1.192,0,0,0,.864.36.88.88,0,0,0,.648-.216A1.568,1.568,0,0,0,91.724,13.98Zm-2.3-1.08h2.3a1.31,1.31,0,0,0-.288-.792,1.026,1.026,0,0,0-.864-.432,1.083,1.083,0,0,0-.792.288A1.516,1.516,0,0,0,89.42,12.9Z" transform="translate(-57.092 -9.66)" fill="#fff"/>
    <path id="Trazado_24" data-name="Trazado 24" d="M100.58,14.816a2.7,2.7,0,0,1-.72.432,2.588,2.588,0,0,1-.792.144,1.424,1.424,0,0,1-1.008-.36,1.192,1.192,0,0,1-.36-.864,1.694,1.694,0,0,1,.144-.576,1.909,1.909,0,0,1,.36-.432,3.51,3.51,0,0,1,.5-.216c.144,0,.36-.072.648-.072a7.866,7.866,0,0,0,1.224-.216V12.44c0-.288-.072-.5-.216-.576a1.158,1.158,0,0,0-.792-.216,1.549,1.549,0,0,0-.72.144,1.136,1.136,0,0,0-.36.576l-.648-.072a2.156,2.156,0,0,1,.288-.72,2.513,2.513,0,0,1,.648-.432A3.648,3.648,0,0,1,99.716,11a2.685,2.685,0,0,1,.864.144,3.13,3.13,0,0,1,.5.288,3.509,3.509,0,0,1,.216.5V13.52a4.5,4.5,0,0,0,.072,1.224,1.335,1.335,0,0,0,.144.5h-.72C100.58,15.176,100.58,14.96,100.58,14.816Zm-.072-1.584a8.825,8.825,0,0,1-1.152.288c-.288.072-.5.072-.576.144a.994.994,0,0,0-.288.216.54.54,0,0,0-.072.36.435.435,0,0,0,.216.432.88.88,0,0,0,.648.216,2.13,2.13,0,0,0,.72-.144.968.968,0,0,0,.432-.5,1.549,1.549,0,0,0,.144-.72v-.288Z" transform="translate(-59.612 -9.632)" fill="#fff"/>
  </g>
</svg>
