<svg id="Grupo_508" data-name="Grupo 508" xmlns="http://www.w3.org/2000/svg" xmlns:xlink="http://www.w3.org/1999/xlink" width="121.5" height="36" viewBox="0 0 121.5 36">
  <defs>
    <linearGradient id="linear-gradient" x1="0.915" y1="6.614" x2="-0.383" y2="5.945" gradientUnits="objectBoundingBox">
      <stop offset="0" stop-color="#00a0ff"/>
      <stop offset="0.007" stop-color="#00a1ff"/>
      <stop offset="0.26" stop-color="#00beff"/>
      <stop offset="0.512" stop-color="#00d2ff"/>
      <stop offset="0.76" stop-color="#00dfff"/>
      <stop offset="1" stop-color="#00e3ff"/>
    </linearGradient>
    <linearGradient id="linear-gradient-2" x1="1.076" y1="17.098" x2="-1.305" y2="17.098" gradientUnits="objectBoundingBox">
      <stop offset="0" stop-color="#ffe000"/>
      <stop offset="0.409" stop-color="#ffbd00"/>
      <stop offset="0.775" stop-color="orange"/>
      <stop offset="1" stop-color="#ff9c00"/>
    </linearGradient>
    <linearGradient id="linear-gradient-3" x1="0.862" y1="10.863" x2="-0.501" y2="9.093" gradientUnits="objectBoundingBox">
      <stop offset="0" stop-color="#ff3a44"/>
      <stop offset="1" stop-color="#c31162"/>
    </linearGradient>
    <linearGradient id="linear-gradient-4" x1="-0.188" y1="13.583" x2="0.421" y2="12.793" gradientUnits="objectBoundingBox">
      <stop offset="0" stop-color="#32a071"/>
      <stop offset="0.068" stop-color="#2da771"/>
      <stop offset="0.476" stop-color="#15cf74"/>
      <stop offset="0.801" stop-color="#06e775"/>
      <stop offset="1" stop-color="#00f076"/>
    </linearGradient>
  </defs>
  <g id="Grupo_506" data-name="Grupo 506" transform="translate(0 0)">
    <rect id="Rectángulo_200" data-name="Rectángulo 200" width="121" height="36" rx="5" transform="translate(0.125)"/>
    <g id="Grupo_503" data-name="Grupo 503" transform="translate(0 0)">
      <g id="Grupo_502" data-name="Grupo 502">
        <path id="Trazado_25" data-name="Trazado 25" d="M127,10.72a3.784,3.784,0,0,1,3.78,3.78v27A3.784,3.784,0,0,1,127,45.28H14.5a3.784,3.784,0,0,1-3.78-3.78v-27a3.784,3.784,0,0,1,3.78-3.78H127m0-.72H14.5A4.513,4.513,0,0,0,10,14.5v27A4.513,4.513,0,0,0,14.5,46H127a4.513,4.513,0,0,0,4.5-4.5v-27A4.513,4.513,0,0,0,127,10Z" transform="translate(-10 -10)" fill="#535353"/>
      </g>
    </g>
    <path id="Trazado_26" data-name="Trazado 26" d="M75.427,31.281a3.828,3.828,0,1,0,3.842,3.828A3.773,3.773,0,0,0,75.427,31.281Zm0,6.147a2.326,2.326,0,1,1,2.16-2.319A2.214,2.214,0,0,1,75.427,37.429Zm-8.382-6.147a3.828,3.828,0,1,0,3.842,3.828A3.773,3.773,0,0,0,67.045,31.281Zm0,6.147a2.326,2.326,0,1,1,2.16-2.319A2.214,2.214,0,0,1,67.045,37.429Zm-9.971-4.973V34.08h3.885a3.389,3.389,0,0,1-.884,2.044,3.978,3.978,0,0,1-3,1.189,4.321,4.321,0,0,1,0-8.641A4.14,4.14,0,0,1,60,29.832l1.146-1.146a5.666,5.666,0,0,0-4.074-1.639,5.946,5.946,0,1,0,0,11.89,5.432,5.432,0,0,0,4.146-1.668,5.366,5.366,0,0,0,1.407-3.8,5.246,5.246,0,0,0-.087-1.014Zm40.777,1.261a3.558,3.558,0,0,0-3.277-2.435,3.637,3.637,0,0,0-3.61,3.828,3.746,3.746,0,0,0,3.8,3.828,3.807,3.807,0,0,0,3.19-1.7l-1.305-.87a2.187,2.187,0,0,1-1.885,1.058,1.948,1.948,0,0,1-1.857-1.159l5.118-2.118Zm-5.22,1.276a2.1,2.1,0,0,1,2-2.233,1.481,1.481,0,0,1,1.421.812ZM88.47,38.7h1.681V27.453H88.47Zm-2.756-6.568h-.058a2.653,2.653,0,0,0-2.015-.855,3.831,3.831,0,0,0,0,7.655,2.608,2.608,0,0,0,2.015-.87h.058v.552c0,1.464-.782,2.247-2.044,2.247A2.118,2.118,0,0,1,81.742,39.5l-1.464.609a3.648,3.648,0,0,0,3.393,2.262c1.972,0,3.64-1.16,3.64-3.987V31.513h-1.6Zm-1.928,5.292a2.328,2.328,0,0,1,0-4.64,2.338,2.338,0,0,1,0,4.64Zm21.943-9.975h-4.024V38.7h1.678V34.442h2.345a3.5,3.5,0,1,0,0-6.988Zm.043,5.422h-2.389V29.02h2.389a1.929,1.929,0,1,1,0,3.857Zm10.379-1.616a3.155,3.155,0,0,0-3,1.722l1.491.623a1.591,1.591,0,0,1,1.535-.825,1.617,1.617,0,0,1,1.766,1.448v.115a3.715,3.715,0,0,0-1.751-.434c-1.606,0-3.243.883-3.243,2.533a2.6,2.6,0,0,0,2.794,2.476,2.37,2.37,0,0,0,2.143-1.1h.058v.868h1.621V34.372C119.567,32.375,118.077,31.261,116.152,31.261Zm-.2,6.166c-.551,0-1.318-.274-1.318-.955,0-.868.955-1.2,1.78-1.2a3,3,0,0,1,1.534.376A2.036,2.036,0,0,1,115.949,37.427Zm9.524-5.92-1.925,4.878h-.058l-2-4.878h-1.809l3,6.818-1.708,3.793h1.751l4.618-10.61Zm-15.126,7.2h1.679V27.454h-1.679Z" transform="translate(-14.104 -11.705)" fill="#fff"/>
    <g id="Grupo_505" data-name="Grupo 505" transform="translate(8.976 6.426)">
      <path id="Trazado_27" data-name="Trazado 27" d="M20.389,17.531a1.806,1.806,0,0,0-.416,1.264V38.7a1.8,1.8,0,0,0,.416,1.265l.067.065,11.15-11.15v-.263L20.455,17.465Z" transform="translate(-19.973 -17.173)" fill="url(#linear-gradient)"/>
      <path id="Trazado_28" data-name="Trazado 28" d="M36.615,33.424,32.9,29.7v-.263l3.718-3.718.084.049,4.4,2.5c1.257.715,1.257,1.884,0,2.6l-4.4,2.5Z" transform="translate(-21.266 -17.999)" fill="url(#linear-gradient-2)"/>
      <path id="Trazado_29" data-name="Trazado 29" d="M35.453,33.8l-3.8-3.8L20.435,41.218a1.465,1.465,0,0,0,1.871.055L35.453,33.8" transform="translate(-20.019 -18.427)" fill="url(#linear-gradient-3)"/>
      <path id="Trazado_30" data-name="Trazado 30" d="M35.453,24.913l-13.147-7.47a1.465,1.465,0,0,0-1.871.055L31.652,28.715Z" transform="translate(-20.019 -17.14)" fill="url(#linear-gradient-4)"/>
      <g id="Grupo_504" data-name="Grupo 504" transform="translate(0 15.292)">
        <path id="Trazado_31" data-name="Trazado 31" d="M35.37,34.132,22.306,41.554a1.5,1.5,0,0,1-1.8.01h0l-.068.067h0l.067.066h0a1.5,1.5,0,0,0,1.8-.01l13.147-7.47Z" transform="translate(-20.019 -34.132)" opacity="0.2" style="isolation: isolate"/>
        <path id="Trazado_32" data-name="Trazado 32" d="M20.389,42.178a1.8,1.8,0,0,1-.416-1.265v.132a1.8,1.8,0,0,0,.416,1.264l.067-.067Z" transform="translate(-19.973 -34.81)" opacity="0.12" style="isolation: isolate"/>
      </g>
      <path id="Trazado_33" data-name="Trazado 33" d="M41.516,31.169l-4.487,2.55.084.084,4.4-2.5A1.58,1.58,0,0,0,42.46,30h0A1.675,1.675,0,0,1,41.516,31.169Z" transform="translate(-21.679 -18.427)" opacity="0.12" style="isolation: isolate"/>
      <path id="Trazado_34" data-name="Trazado 34" d="M22.26,17.575l17.551,9.972a1.675,1.675,0,0,1,.943,1.168h0a1.577,1.577,0,0,0-.943-1.3L22.26,17.443c-1.258-.715-2.287-.121-2.287,1.319V18.9C19.973,17.454,21,16.86,22.26,17.575Z" transform="translate(-19.973 -17.14)" fill="#fff" opacity="0.25" style="isolation: isolate"/>
    </g>
  </g>
  <path id="Trazado_35" data-name="Trazado 35" d="M44.8,14.788V9.1h1.944a3.826,3.826,0,0,1,1.008.072,1.962,1.962,0,0,1,.864.432,2.74,2.74,0,0,1,.648.936,3.9,3.9,0,0,1,.216,1.368,5.6,5.6,0,0,1-.144,1.152,2.025,2.025,0,0,1-.36.792,3.326,3.326,0,0,1-.5.5,2.558,2.558,0,0,1-.648.288,3.8,3.8,0,0,1-.936.072H44.8Zm.792-.72h1.224A2.967,2.967,0,0,0,47.68,14a1.16,1.16,0,0,0,.5-.288,3.148,3.148,0,0,0,.432-.72,4.358,4.358,0,0,0,.144-1.08,2.42,2.42,0,0,0-.288-1.368,2.042,2.042,0,0,0-.72-.648,2.821,2.821,0,0,0-.936-.144H45.592Z" transform="translate(-7.276 -2.548)" fill="#fff"/>
  <path id="Trazado_36" data-name="Trazado 36" d="M52.6,9.892V9.1h.72v.792Zm0,4.9v-4.1h.72v4.1Z" transform="translate(-9.46 -2.548)" fill="#fff"/>
  <path id="Trazado_37" data-name="Trazado 37" d="M54.5,14.152l.72-.144a1.357,1.357,0,0,0,.288.648,1.308,1.308,0,0,0,1.44,0,.622.622,0,0,0,.216-.432.4.4,0,0,0-.216-.36,2.122,2.122,0,0,0-.72-.216,4.608,4.608,0,0,1-1.08-.36.737.737,0,0,1-.432-.36,1.356,1.356,0,0,1-.144-.576,1.041,1.041,0,0,1,.144-.5.868.868,0,0,1,.36-.36l.432-.216a1.585,1.585,0,0,1,.576-.072,3.614,3.614,0,0,1,.864.144.918.918,0,0,1,.5.36.88.88,0,0,1,.216.648l-.648.072a.729.729,0,0,0-.288-.5c-.144-.144-.36-.144-.648-.144a1.807,1.807,0,0,0-.72.144.4.4,0,0,0-.216.36.264.264,0,0,0,.072.216.994.994,0,0,0,.288.216c.072,0,.288.072.648.144.5.144.864.216,1.008.288a.737.737,0,0,1,.432.36,1.357,1.357,0,0,1,.144.576,1.161,1.161,0,0,1-.216.648,1.941,1.941,0,0,1-.576.5,1.826,1.826,0,0,1-.864.144,2.059,2.059,0,0,1-1.224-.36A2.54,2.54,0,0,1,54.5,14.152Z" transform="translate(-9.992 -3.136)" fill="#fff"/>
  <path id="Trazado_38" data-name="Trazado 38" d="M60.3,16.932V11.244h.648v.5a1.682,1.682,0,0,1,.5-.5,2.13,2.13,0,0,1,.72-.144,1.447,1.447,0,0,1,.936.288,1.281,1.281,0,0,1,.576.792,2.889,2.889,0,0,1,.216,1.08,2.985,2.985,0,0,1-.216,1.152,1.76,1.76,0,0,1-.648.792,2.042,2.042,0,0,1-.936.288,2.1,2.1,0,0,1-.648-.144.737.737,0,0,1-.432-.36V17H60.3Zm.648-3.672a1.7,1.7,0,0,0,.288,1.152.917.917,0,0,0,.792.36,1.156,1.156,0,0,0,.792-.36,1.907,1.907,0,0,0,.36-1.224,1.7,1.7,0,0,0-.288-1.152.917.917,0,0,0-.792-.36,1,1,0,0,0-.792.432A1.487,1.487,0,0,0,60.948,13.26Z" transform="translate(-11.616 -3.108)" fill="#fff"/>
  <path id="Trazado_39" data-name="Trazado 39" d="M65.9,13.288a1.97,1.97,0,0,1,.648-1.656,2.01,2.01,0,0,1,1.3-.432,1.844,1.844,0,0,1,1.368.576,2.028,2.028,0,0,1,.5,1.512,2.869,2.869,0,0,1-.216,1.224,1.726,1.726,0,0,1-.72.72,2.3,2.3,0,0,1-1.008.216,1.844,1.844,0,0,1-1.368-.576A2.443,2.443,0,0,1,65.9,13.288Zm.72,0a1.691,1.691,0,0,0,.36,1.152.969.969,0,0,0,.864.36,1.192,1.192,0,0,0,.864-.36,1.906,1.906,0,0,0,.36-1.224,1.832,1.832,0,0,0-.36-1.152.969.969,0,0,0-.864-.36,1.192,1.192,0,0,0-.864.36A1.906,1.906,0,0,0,66.62,13.288Z" transform="translate(-13.184 -3.136)" fill="#fff"/>
  <path id="Trazado_40" data-name="Trazado 40" d="M72.3,15.376v-4.1h.648v.576a1.454,1.454,0,0,1,1.3-.648,1.72,1.72,0,0,1,.648.144.737.737,0,0,1,.432.36,3.51,3.51,0,0,1,.216.5c0,.144.072.36.072.648v2.52h-.72v-2.52a1.6,1.6,0,0,0-.072-.648.719.719,0,0,0-.288-.36c-.072-.072-.288-.072-.432-.072a1.083,1.083,0,0,0-.792.288,1.5,1.5,0,0,0-.288,1.08v2.232Z" transform="translate(-14.976 -3.136)" fill="#fff"/>
  <path id="Trazado_41" data-name="Trazado 41" d="M78.3,9.892V9.1h.72v.792Zm0,4.9v-4.1h.72v4.1Z" transform="translate(-16.656 -2.548)" fill="#fff"/>
  <path id="Trazado_42" data-name="Trazado 42" d="M81.248,14.788H80.6V9.1h.72v2.016a1.4,1.4,0,0,1,1.152-.576,2.13,2.13,0,0,1,.72.144,1.12,1.12,0,0,1,.576.432,2.918,2.918,0,0,1,.36.648,3.094,3.094,0,0,1,.144.864,2.4,2.4,0,0,1-.5,1.656,1.775,1.775,0,0,1-1.224.576,1.4,1.4,0,0,1-1.152-.576v.5Zm0-2.088a2.024,2.024,0,0,0,.216,1.08.94.94,0,0,0,.864.5,1,1,0,0,0,.792-.432,1.832,1.832,0,0,0,.36-1.152,1.7,1.7,0,0,0-.288-1.152.917.917,0,0,0-.792-.36,1,1,0,0,0-.792.432A1.375,1.375,0,0,0,81.248,12.7Z" transform="translate(-17.3 -2.548)" fill="#fff"/>
  <path id="Trazado_43" data-name="Trazado 43" d="M86.6,14.788V9.1h.72v5.688Z" transform="translate(-18.98 -2.548)" fill="#fff"/>
  <path id="Trazado_44" data-name="Trazado 44" d="M91.724,13.98l.72.072A1.893,1.893,0,0,1,91.8,15.06a2.06,2.06,0,0,1-2.592-.216,2.1,2.1,0,0,1-.5-1.584,2.1,2.1,0,0,1,.5-1.584,1.913,1.913,0,0,1,2.736,0,2.1,2.1,0,0,1,.5,1.584v.216h-3.1a1.424,1.424,0,0,0,.36,1.008,1.192,1.192,0,0,0,.864.36.88.88,0,0,0,.648-.216A1.568,1.568,0,0,0,91.724,13.98Zm-2.3-1.08h2.3a1.31,1.31,0,0,0-.288-.792,1.026,1.026,0,0,0-.864-.432,1.083,1.083,0,0,0-.792.288A1.516,1.516,0,0,0,89.42,12.9Z" transform="translate(-19.568 -3.108)" fill="#fff"/>
  <path id="Trazado_45" data-name="Trazado 45" d="M100.58,14.816a2.7,2.7,0,0,1-.72.432,2.588,2.588,0,0,1-.792.144,1.424,1.424,0,0,1-1.008-.36,1.192,1.192,0,0,1-.36-.864,1.694,1.694,0,0,1,.144-.576,1.909,1.909,0,0,1,.36-.432,3.51,3.51,0,0,1,.5-.216c.144,0,.36-.072.648-.072a7.866,7.866,0,0,0,1.224-.216V12.44c0-.288-.072-.5-.216-.576a1.158,1.158,0,0,0-.792-.216,1.549,1.549,0,0,0-.72.144,1.136,1.136,0,0,0-.36.576l-.648-.072a2.156,2.156,0,0,1,.288-.72,2.513,2.513,0,0,1,.648-.432A3.648,3.648,0,0,1,99.716,11a2.685,2.685,0,0,1,.864.144,3.13,3.13,0,0,1,.5.288,3.509,3.509,0,0,1,.216.5V13.52a4.5,4.5,0,0,0,.072,1.224,1.335,1.335,0,0,0,.144.5h-.72C100.58,15.176,100.58,14.96,100.58,14.816Zm-.072-1.584a8.825,8.825,0,0,1-1.152.288c-.288.072-.5.072-.576.144a.994.994,0,0,0-.288.216.54.54,0,0,0-.072.36.435.435,0,0,0,.216.432.88.88,0,0,0,.648.216,2.13,2.13,0,0,0,.72-.144.968.968,0,0,0,.432-.5,1.549,1.549,0,0,0,.144-.72v-.288Z" transform="translate(-22.088 -3.08)" fill="#fff"/>
</svg>
